Coordinates
version=1
nRows=13
nColumns=22
inDegrees=yes

Units are S.I. units (second, meters, Newtons, ...)
If the header above contains a line with 'inDegrees', this indicates whether rotational values are in degrees (yes) or radians (no).

endheader
time	pelvis_tilt	pelvis_list	pelvis_rotation	pelvis_tx	pelvis_ty	pelvis_tz	hip_flexion_r	hip_adduction_r	hip_rotation_r	knee_angle_r	ankle_angle_r	subtalar_angle_r	hip_flexion_l	hip_adduction_l	hip_rotation_l	knee_angle_l	ankle_angle_l	subtalar_angle_l	lumbar_extension	lumbar_bending	lumbar_rotation
      5.45000000	      5.07655014	     -1.11277208	    301.73325126	     -0.48363169	      1.07186135	      0.63418652	     19.84391462	     -9.81232519	      4.15916735	    -55.00571723	      5.49672376	      2.42646808	     -4.68068999	     14.51981084	     14.14809164	    -10.73726019	      9.09495252	    -15.64346887	     -3.82501211	     -5.91204755	     -7.43517049
      5.46000000	      4.96285134	     -1.10853520	    302.93945087	     -0.47907214	      1.07182327	      0.64014284	     20.26471105	     -9.79845250	      3.77925681	    -53.28246622	      6.13360443	      2.13669134	     -5.26073724	     14.27036983	     15.35908797	    -10.73634674	      9.27569665	    -15.70251208	     -3.84780252	     -5.73274468	     -7.58060314
      5.47000000	      4.84420079	     -1.10537395	    304.11110145	     -0.47459542	      1.07173700	      0.64610085	     20.63893776	     -9.76647491	      3.39632397	    -51.44833477	      6.68788872	      2.00879175	     -5.81664693	     14.00125951	     16.53745183	    -10.74846724	      9.45670027	    -15.76897036	     -3.86376193	     -5.56049392	     -7.70782719
      5.48000000	      4.71175619	     -1.10791374	    305.24281646	     -0.47021235	      1.07159476	      0.65207121	     20.96520456	     -9.70092091	      3.01668432	    -49.50629356	      7.17996004	      1.97749938	     -6.33606672	     13.70504733	     17.64594602	    -10.78913905	      9.65337804	    -15.83696025	     -3.87277373	     -5.38324088	     -7.82239527
      5.49000000	      4.58048366	     -1.10353678	    306.33037955	     -0.46591478	      1.07137597	      0.65805527	     21.25339725	     -9.62237123	      2.65282058	    -47.47482794	      7.61569415	      2.03030293	     -6.82081514	     13.40482131	     18.68332873	    -10.84994162	      9.87172112	    -15.89745551	     -3.87283611	     -5.22276863	     -7.91661273
      5.50000000	      4.44932072	     -1.08583497	    307.36790033	     -0.46169694	      1.07106466	      0.66404971	     21.51161284	     -9.53484983	      2.30754539	    -45.35962460	      7.99965149	      2.14924968	     -7.26158337	     13.10866957	     19.63614963	    -10.93625700	     10.11716811	    -15.95146074	     -3.85965921	     -5.07996962	     -7.98870521
      5.51000000	      4.28423796	     -1.01160015	    308.35007378	     -0.45757350	      1.07056097	      0.67002476	     21.80966825	     -9.43367609	      1.99574660	    -43.18140104	      8.32169962	      2.30618251	     -7.58444436	     12.82495648	     20.47849884	    -11.07423500	     10.41087019	    -15.99771157	     -3.77417587	     -4.95300870	     -8.03468517
      5.52000000	      4.19260487	     -0.99225523	    309.28144177	     -0.45347499	      1.07011602	      0.67605824	     21.95788906	     -9.35185535	      1.67678797	    -40.91555648	      8.64376399	      2.54410957	     -8.01633625	     12.55592595	     21.26559681	    -11.15884152	     10.67871081	    -16.05169844	     -3.78910214	     -4.86028963	     -8.04356771
      5.53000000	      4.05869173	     -0.92388968	    310.15240498	     -0.44947056	      1.06948505	      0.68207603	     22.13941979	     -9.24106503	      1.39870677	    -38.58785380	      8.89943423	      2.80589204	     -8.33680907	     12.29313915	     21.94417321	    -11.29119931	     10.98763878	    -16.10409520	     -3.73562719	     -4.76735150	     -8.03312037
      5.54000000	      3.91735439	     -0.84088746	    310.97208030	     -0.44550868	      1.06874909	      0.68811662	     22.29483215	     -9.12236597	      1.11821071	    -36.20055476	      9.11670226	      3.10455685	     -8.62547040	     12.03698304	     22.53762451	    -11.42831480	     11.30639269	    -16.15379298	     -3.66511288	     -4.68264361	     -7.98856511
      5.55000000	      3.76278637	     -0.75803148	    311.73979690	     -0.44160368	      1.06792999	      0.69420240	     22.41330105	     -8.96959257	      0.86160782	    -33.75820494	      9.28702712	      3.44350155	     -8.89237702	     11.77216855	     23.04949774	    -11.56814318	     11.63580567	    -16.20313355	     -3.58706690	     -4.59018661	     -7.93125734
      5.56000000	      3.59397268	     -0.68518114	    312.45690602	     -0.43773045	      1.06704267	      0.70036321	     22.49067753	     -8.77698204	      0.61562808	    -31.27661667	      9.41862725	      3.83821392	     -9.15248922	     11.48953723	     23.48772248	    -11.70034838	     11.97160339	    -16.25082095	     -3.50372894	     -4.48334179	     -7.83620782
      5.57000000	      3.40794369	     -0.62315320	    313.13037051	     -0.43389285	      1.06609317	      0.70660355	     22.52824375	     -8.53378662	      0.41451121	    -28.76764271	      9.51689355	      4.29529819	     -9.39965495	     11.18601041	     23.85707975	    -11.83406693	     12.31505277	    -16.29425836	     -3.41515612	     -4.35781508	     -7.73795386
